HIERARCHY
ROOT Hips
{
	OFFSET -0.001795 -0.223333 0.028219
	CHANNELS 6 Xposition Yposition Zposition Zrotation Yrotation Xrotation 
	JOINT LeftUpLeg
	{
		OFFSET 0.069520 -0.091406 -0.006815
		CHANNELS 3 Zrotation Yrotation Xrotation
		JOINT LeftLeg
		{
			OFFSET 0.034277 -0.375199 -0.004496
			CHANNELS 3 Zrotation Yrotation Xrotation
			JOINT LeftFoot
			{
				OFFSET -0.013596 -0.397961 -0.043693
				CHANNELS 3 Zrotation Yrotation Xrotation
				JOINT LeftToe
				{
					OFFSET 0.026358 -0.055791 0.119288
					CHANNELS 3 Zrotation Yrotation Xrotation
					End Site
					{
						OFFSET 0.000000 0.000000 0.000000
					}
				}
			}
		}
	}
	JOINT RightUpLeg
	{
		OFFSET -0.067670 -0.090522 -0.004320
		CHANNELS 3 Zrotation Yrotation Xrotation
		JOINT RightLeg
		{
			OFFSET -0.038290 -0.382569 -0.008850
			CHANNELS 3 Zrotation Yrotation Xrotation
			JOINT RightFoot
			{
				OFFSET 0.015774 -0.398415 -0.042312
				CHANNELS 3 Zrotation Yrotation Xrotation
				JOINT RightToe
				{
					OFFSET -0.025372 -0.048144 0.123348
					CHANNELS 3 Zrotation Yrotation Xrotation
					End Site
					{
						OFFSET 0.000000 0.000000 0.000000
					}
				}
			}
		}
	}
	JOINT Spine
	{
		OFFSET -0.002533 0.108963 -0.026696
		CHANNELS 3 Zrotation Yrotation Xrotation
		JOINT Spine1
		{
			OFFSET 0.005487 0.135180 0.001092
			CHANNELS 3 Zrotation Yrotation Xrotation
			JOINT Spine2
			{
				OFFSET 0.001457 0.052922 0.025425
				CHANNELS 3 Zrotation Yrotation Xrotation
				JOINT Neck
				{
					OFFSET -0.002778 0.213870 -0.042857
					CHANNELS 3 Zrotation Yrotation Xrotation
					JOINT Head
					{
						OFFSET 0.005152 0.064970 0.051349
						CHANNELS 3 Zrotation Yrotation Xrotation
						End Site
						{
							OFFSET 0.000000 0.000000 0.000000
						}
					}
				}
				JOINT LeftShoulder
				{
					OFFSET 0.078845 0.121749 -0.034090
					CHANNELS 3 Zrotation Yrotation Xrotation
					JOINT LeftArm
					{
						OFFSET 0.090977 0.030469 -0.008868
						CHANNELS 3 Zrotation Yrotation Xrotation
						JOINT LeftForeArm
						{
							OFFSET 0.259612 -0.012772 -0.027456
							CHANNELS 3 Zrotation Yrotation Xrotation
							JOINT LeftHand
							{
								OFFSET 0.249234 0.008986 -0.001171
								CHANNELS 3 Zrotation Yrotation Xrotation
								End Site
								{
									OFFSET 0.000000 0.000000 0.000000
								}
							}
						}
					}
				}
				JOINT RightShoulder
				{
					OFFSET -0.081759 0.118833 -0.038615
					CHANNELS 3 Zrotation Yrotation Xrotation
					JOINT RightArm
					{
						OFFSET -0.096012 0.032551 -0.009143
						CHANNELS 3 Zrotation Yrotation Xrotation
						JOINT RightForeArm
						{
							OFFSET -0.253742 -0.013329 -0.021401
							CHANNELS 3 Zrotation Yrotation Xrotation
							JOINT RightHand
							{
								OFFSET -0.255298 0.007772 -0.005559
								CHANNELS 3 Zrotation Yrotation Xrotation
								End Site
								{
									OFFSET 0.000000 0.000000 0.000000
								}
							}
						}
					}
				}
			}
		}
	}
}
MOTION
Frames: 13
Frame Time: 0.050000
0.000000 0.952325 0.000000 0.699324 2.703940 3.076422 1.099384 0.157677 2.316462 -3.367387 0.367507 -6.647495 4.060108 10.831228 9.185100 0.000000 0.000000 0.000000 -0.004800 -0.106580 1.053395 3.600332 -0.419259 -2.450425 -7.730679 -19.097379 9.944448 0.000000 0.000000 0.000000 -1.717017 -0.004650 1.332287 4.345444 -0.416235 -23.509666 0.046464 0.128559 28.034064 -1.705044 2.944028 -28.818882 0.000000 0.000000 0.000000 -32.121921 1.997252 -4.498340 -52.667134 -3.371184 -6.903685 1.402802 -24.759816 0.996838 0.000000 0.000000 0.000000 23.031523 4.804521 2.181331 56.719483 5.865250 -5.436543 -5.548378 21.665451 0.145126 0.000000 0.000000 0.000000 
-0.001883 0.950724 0.000281 0.395288 2.555803 3.868126 1.584343 0.070921 1.478023 -3.204499 0.361305 -6.855719 4.563111 11.408265 7.981201 0.000000 0.000000 0.000000 0.616983 -0.032267 0.152826 3.359822 -0.394310 -2.326546 -8.086764 -19.788423 9.365058 0.000000 0.000000 0.000000 -1.602287 0.012392 0.712876 4.662222 -0.493028 -23.518138 -0.046648 1.171722 27.950009 -2.010189 3.300609 -30.062597 0.000000 0.000000 0.000000 -31.585759 3.245430 -5.728052 -53.851413 -2.713734 -7.194963 1.826672 -25.257091 0.892998 0.000000 0.000000 0.000000 23.830153 4.499081 2.307221 57.409214 6.197003 -5.347742 -6.816128 22.617900 -0.005557 0.000000 0.000000 0.000000 
-0.004290 0.950402 0.000144 0.905083 3.092286 4.236866 1.386470 0.002473 0.512568 -3.717153 0.377856 -5.484678 5.043996 12.363790 8.562077 0.000000 0.000000 0.000000 0.481779 0.060103 -0.674865 3.123543 -0.365643 -1.480185 -8.443577 -20.445712 9.303308 0.000000 0.000000 0.000000 -1.234031 -0.002341 0.938550 3.543560 -0.173058 -24.195204 -0.174352 0.327808 28.365340 -2.785996 3.643191 -31.243945 0.000000 0.000000 0.000000 -30.511640 3.565945 -5.515698 -54.270063 -1.997745 -7.685664 2.871834 -25.873106 0.729273 0.000000 0.000000 0.000000 23.524484 5.544780 2.775959 56.950818 6.875650 -4.992060 -6.527232 23.276435 0.011627 0.000000 0.000000 0.000000 
-0.007302 0.951058 -0.000503 1.188596 3.073835 4.327331 1.200060 -0.051190 -0.247352 -3.727792 0.379315 -4.540982 5.189295 12.407071 7.501857 0.000000 0.000000 0.000000 0.519329 0.136769 -1.407712 3.113542 -0.354580 -0.630055 -9.047593 -21.572906 9.555242 0.000000 0.000000 0.000000 -1.630240 -0.003674 1.444838 4.221869 -0.303773 -24.757941 -0.471709 0.993053 28.796622 -2.461257 3.582939 -30.975212 0.000000 0.000000 0.000000 -30.702286 3.646452 -5.882639 -53.788062 -1.118351 -7.948130 3.640050 -27.217997 0.552564 0.000000 0.000000 0.000000 24.221035 6.070464 3.357311 55.813705 6.781749 -5.079128 -6.553299 26.021149 0.046967 0.000000 0.000000 0.000000 
-0.010920 0.951801 -0.001976 1.410361 3.189871 4.260748 1.150110 -0.104745 -0.937552 -3.595077 0.369876 -3.763266 4.894515 11.977810 7.805854 0.000000 0.000000 0.000000 0.457793 0.183633 -1.843900 2.767430 -0.304738 0.337775 -8.423478 -20.426924 8.656650 0.000000 0.000000 0.000000 -1.587533 -0.024072 2.151081 4.470121 -0.417929 -23.781233 -0.615059 1.223698 27.906487 -2.673824 3.728032 -30.714075 0.000000 0.000000 0.000000 -29.870777 3.610540 -5.858609 -53.748663 -0.702913 -8.009001 2.935550 -28.033747 0.692335 0.000000 0.000000 0.000000 23.837106 6.201584 3.479091 55.427442 7.254539 -4.746075 -6.477833 27.482420 0.071708 0.000000 0.000000 0.000000 
-0.014799 0.952145 -0.004241 1.727097 2.827889 4.307814 0.927563 -0.173902 -1.834053 -3.260713 0.344238 -2.402028 4.898496 11.775536 6.842457 0.000000 0.000000 0.000000 0.293821 0.245790 -2.437950 2.778913 -0.289415 1.402076 -8.352682 -20.325313 7.992841 0.000000 0.000000 0.000000 -1.879389 -0.032039 2.981556 4.731932 -0.468918 -24.028321 -0.486629 1.441606 27.988612 -2.252026 3.497142 -30.217304 0.000000 0.000000 0.000000 -29.685744 3.658961 -5.834721 -53.555384 -0.031021 -8.292024 2.801433 -29.408196 0.770806 0.000000 0.000000 0.000000 23.797675 6.761520 3.810120 54.609695 7.923929 -4.423076 -6.986316 28.840621 -0.040426 0.000000 0.000000 0.000000 
-0.018831 0.952112 -0.007456 1.873224 1.893603 4.366457 0.984990 -0.264080 -2.918171 -3.432205 0.360917 -1.222169 5.032909 11.982066 6.871075 0.000000 0.000000 0.000000 0.336467 0.330435 -3.285825 2.736897 -0.258105 2.785766 -7.909214 -19.489787 6.882020 0.000000 0.000000 0.000000 -1.641149 -0.073961 4.187356 4.880576 -0.552335 -23.503084 -0.369927 2.091546 27.590715 -1.814382 3.274511 -30.057301 0.000000 0.000000 0.000000 -29.629544 3.709133 -5.880043 -52.993416 -0.026891 -8.168919 2.092686 -30.269757 0.966733 0.000000 0.000000 0.000000 23.598743 7.057605 3.970298 54.039936 8.675749 -4.025424 -7.423931 30.153443 -0.146307 0.000000 0.000000 0.000000 
-0.022880 0.952196 -0.011450 1.857061 1.214559 4.041668 1.351034 -0.417948 -4.861272 -3.786840 0.394446 3.004770 5.499628 12.470883 5.146639 0.000000 0.000000 0.000000 0.579060 0.421993 -4.178781 2.931031 -0.258639 4.392633 -8.121326 -19.929943 6.313452 0.000000 0.000000 0.000000 -1.253160 -0.157974 6.204861 4.996541 -0.597784 -23.399250 0.085807 2.318354 27.828658 -1.535042 3.082484 -29.616961 0.000000 0.000000 0.000000 -30.362693 3.498643 -5.754646 -52.185359 -0.562772 -7.882307 1.112403 -31.693888 1.323228 0.000000 0.000000 0.000000 23.618786 7.340953 4.077821 52.998181 9.314149 -3.758323 -7.559521 31.203327 -0.197493 0.000000 0.000000 0.000000 
-0.026912 0.952102 -0.015703 1.950693 0.963017 3.842069 1.576461 -0.699972 -8.523004 -4.349407 0.491960 9.738468 5.843273 12.904457 3.992691 0.000000 0.000000 0.000000 0.675512 0.516730 -5.078149 3.137950 -0.271568 5.818182 -8.096426 -19.892334 5.082525 0.000000 0.000000 0.000000 -0.987885 -0.233907 7.919948 5.681866 -0.826832 -22.631107 0.030620 2.449373 27.811874 -1.835772 3.242101 -29.760190 0.000000 0.000000 0.000000 -30.667954 2.943724 -5.398853 -51.635254 -2.276915 -7.119769 1.314263 -31.638709 1.268656 0.000000 0.000000 0.000000 23.950403 7.607007 4.234875 51.644466 10.177654 -3.373637 -8.827405 31.778785 -0.542324 0.000000 0.000000 0.000000 
-0.030759 0.950529 -0.019023 1.970684 1.568303 3.404228 1.828325 -1.103432 -13.817393 -4.867296 0.619840 19.364252 5.897753 12.824004 2.796897 0.000000 0.000000 0.000000 0.320239 0.547022 -5.412133 3.977409 -0.412985 7.143818 -8.522636 -20.794719 4.498481 0.000000 0.000000 0.000000 -0.762304 -0.336123 10.069527 6.147113 -0.978739 -22.133906 0.260162 1.864095 27.961494 -1.939228 3.250795 -29.600923 0.000000 0.000000 0.000000 -31.471308 2.585213 -5.182453 -50.195332 -3.269215 -6.577766 0.025917 -32.996041 1.714833 0.000000 0.000000 0.000000 23.186141 7.811027 4.243771 50.671645 10.157731 -3.348173 -8.877706 32.703107 -0.606793 0.000000 0.000000 0.000000 
-0.034185 0.949563 -0.019889 2.236994 0.546070 3.595178 3.360257 -1.285135 -19.248451 -7.969030 1.891381 27.981364 7.194447 15.476004 4.552865 0.000000 0.000000 0.000000 -0.113176 0.666260 -6.722411 4.324457 -0.452977 9.358087 -8.399623 -20.551097 3.023132 0.000000 0.000000 0.000000 -1.392771 -0.292559 11.263046 6.962519 -1.240217 -21.664682 0.838480 2.629062 27.756203 -2.733137 3.713525 -30.427362 0.000000 0.000000 0.000000 -32.870219 2.497132 -5.426538 -48.111699 -3.675865 -6.138384 -1.919823 -33.119312 2.254561 0.000000 0.000000 0.000000 23.580467 7.144084 3.899201 48.401128 9.488022 -3.589695 -7.018030 33.254139 -0.153823 0.000000 0.000000 0.000000 
-0.036730 0.948933 -0.017621 2.624772 0.523845 3.452349 4.207929 -1.440465 -24.132846 -9.439908 2.804026 34.614158 6.978417 15.228146 5.743054 0.000000 0.000000 0.000000 -1.113350 0.688544 -7.302684 5.450090 -0.682683 10.959971 -8.323260 -20.385316 2.875322 0.000000 0.000000 0.000000 -1.419340 -0.352065 13.484172 7.735860 -1.359306 -22.532281 0.751084 2.448054 28.242864 -3.659671 4.172514 -29.880116 0.000000 0.000000 0.000000 -34.105280 1.937220 -5.113987 -46.276672 -4.152322 -5.818617 -3.178336 -34.097042 2.713685 0.000000 0.000000 0.000000 23.916495 7.249602 3.929816 47.038128 8.751726 -3.867063 -6.475720 33.302448 -0.048186 0.000000 0.000000 0.000000 
-0.038037 0.948933 -0.012515 2.790020 -1.292274 3.229930 5.202229 -1.268326 -27.236935 -10.567106 3.674824 35.596403 7.879829 16.716181 5.605338 0.000000 0.000000 0.000000 -1.402791 0.701974 -7.518778 5.195172 -0.580793 12.752458 -7.765376 -19.138011 3.163547 0.000000 0.000000 0.000000 -1.368590 -0.366330 14.972224 7.608574 -1.428587 -21.769517 1.539218 3.561385 27.743010 -4.167598 4.454276 -29.604503 0.000000 0.000000 0.000000 -35.281757 2.063938 -5.437333 -44.611056 -4.265648 -5.525245 -5.222197 -33.855152 3.271078 0.000000 0.000000 0.000000 24.132346 7.226730 3.886594 45.433288 7.570216 -4.162148 -5.720135 33.267814 0.096737 0.000000 0.000000 0.000000 
